<?xml version="1.0" encoding="utf-8"?>
<!-- Uploaded to: SVG Repo, www.svgrepo.com, Generator: SVG Repo Mixer Tools -->
<svg width="800px" height="800px" viewBox="0 0 1024 1024" class="icon"  version="1.1" xmlns="http://www.w3.org/2000/svg"><path d="M992 582.4V441.6c0-14.4-11.2-25.6-25.6-25.6H888c-11.2 0-20.8-7.2-24-17.6-6.4-19.2-13.6-37.6-22.4-55.2-4.8-9.6-3.2-21.6 4.8-29.6l56-56c9.6-9.6 9.6-26.4 0-36l-99.2-99.2c-9.6-9.6-26.4-9.6-36 0l-56 56c-8 8-20 9.6-29.6 4.8-17.6-8.8-36-16.8-55.2-22.4-10.4-3.2-17.6-13.6-17.6-24V57.6C608 43.2 596.8 32 582.4 32H441.6C427.2 32 416 43.2 416 57.6V136c0 11.2-7.2 20.8-17.6 24-19.2 6.4-37.6 13.6-55.2 22.4-9.6 4.8-21.6 3.2-29.6-4.8l-56-56c-9.6-9.6-26.4-9.6-36 0L123.2 222.4c-9.6 9.6-9.6 26.4 0 36l56 56c8 8 9.6 20 4.8 29.6-8.8 17.6-16.8 36-22.4 55.2-3.2 10.4-13.6 17.6-24 17.6h-80C43.2 416 32 427.2 32 441.6v140.8C32 596.8 43.2 608 57.6 608H136c11.2 0 20.8 7.2 24 17.6 6.4 19.2 13.6 37.6 22.4 55.2 4.8 9.6 3.2 21.6-4.8 29.6l-56 56c-9.6 9.6-9.6 26.4 0 36l99.2 99.2c9.6 9.6 26.4 9.6 36 0l56-56c8-8 20-9.6 29.6-4.8 17.6 8.8 36 16.8 55.2 22.4 10.4 3.2 17.6 13.6 17.6 24v78.4c0 14.4 11.2 25.6 25.6 25.6h140.8c14.4 0 25.6-11.2 25.6-25.6V888c0-11.2 7.2-20.8 17.6-24 19.2-6.4 37.6-13.6 55.2-22.4 9.6-4.8 21.6-3.2 29.6 4.8l56 56c9.6 9.6 26.4 9.6 36 0l99.2-99.2c9.6-9.6 9.6-26.4 0-36l-56-56c-8-8-9.6-20-4.8-29.6 8.8-17.6 16.8-36 22.4-55.2 3.2-10.4 13.6-17.6 24-17.6h78.4c16-0.8 27.2-12 27.2-26.4zM512 737.6c-124 0-225.6-100.8-225.6-225.6 0-124 100.8-225.6 225.6-225.6S737.6 388 737.6 512 636 737.6 512 737.6z" fill="#938993" /><path d="M582.4 1000H441.6c-18.4 0-33.6-15.2-33.6-33.6V888c0-8-4.8-14.4-12-16.8-19.2-6.4-38.4-14.4-56-23.2-6.4-3.2-15.2-1.6-20 3.2l-56 56c-6.4 6.4-14.4 9.6-24 9.6-8.8 0-17.6-3.2-24-9.6L116.8 808c-6.4-6.4-9.6-14.4-9.6-24 0-8.8 3.2-17.6 9.6-24l56-56c5.6-5.6 6.4-13.6 3.2-20-9.6-18.4-16.8-36.8-23.2-56-2.4-7.2-8.8-12-16.8-12H57.6C39.2 616 24 600.8 24 582.4V441.6C24 423.2 39.2 408 57.6 408H136c8 0 14.4-4.8 16.8-12 6.4-19.2 14.4-38.4 23.2-56 3.2-6.4 2.4-14.4-3.2-20l-56-56c-6.4-6.4-9.6-14.4-9.6-24s3.2-17.6 9.6-24L216 116.8c6.4-6.4 14.4-9.6 24-9.6 8.8 0 17.6 3.2 24 9.6l56 56c5.6 5.6 13.6 6.4 20 3.2 18.4-9.6 36.8-16.8 56-23.2 7.2-2.4 12-8.8 12-16.8V57.6C408 39.2 423.2 24 441.6 24h140.8C600.8 24 616 39.2 616 57.6V136c0 8 4.8 14.4 12 16.8 19.2 6.4 38.4 14.4 56 23.2 6.4 3.2 15.2 1.6 20-3.2l56-56c6.4-6.4 14.4-9.6 24-9.6 8.8 0 17.6 3.2 24 9.6L907.2 216c6.4 6.4 9.6 14.4 9.6 24s-3.2 17.6-9.6 24l-56 56c-5.6 5.6-6.4 13.6-3.2 20 9.6 18.4 16.8 36.8 23.2 56 2.4 7.2 8.8 12 16.8 12h78.4c18.4 0 33.6 15.2 33.6 33.6v140.8c0 18.4-15.2 33.6-33.6 33.6H888c-8 0-14.4 4.8-16.8 12-6.4 19.2-14.4 38.4-23.2 56-3.2 6.4-2.4 14.4 3.2 20l56 56c6.4 6.4 9.6 14.4 9.6 24 0 8.8-3.2 17.6-9.6 24L808 907.2c-6.4 6.4-14.4 9.6-24 9.6-8.8 0-17.6-3.2-24-9.6l-56-56c-5.6-5.6-13.6-6.4-20-3.2-18.4 9.6-36.8 16.8-56 23.2-7.2 2.4-12 8.8-12 16.8v78.4c0 18.4-15.2 33.6-33.6 33.6z m-249.6-170.4c4.8 0 10.4 1.6 15.2 4 17.6 8.8 35.2 16 53.6 22.4 13.6 4.8 23.2 17.6 23.2 32v78.4c0 9.6 8 17.6 17.6 17.6h140.8c9.6 0 17.6-8 17.6-17.6V888c0-14.4 9.6-27.2 23.2-32 18.4-5.6 36.8-13.6 53.6-22.4 12.8-6.4 28.8-4 38.4 6.4l56 56c6.4 6.4 18.4 6.4 24.8 0L896 796.8c3.2-3.2 4.8-8 4.8-12.8 0-4.8-1.6-8.8-4.8-12.8l-56-56c-10.4-10.4-12.8-25.6-6.4-38.4 8.8-17.6 16-35.2 22.4-53.6 4.8-13.6 17.6-23.2 32-23.2h78.4c9.6 0 17.6-8 17.6-17.6V441.6c0-9.6-8-17.6-17.6-17.6H888c-14.4 0-27.2-9.6-32-23.2-5.6-18.4-13.6-36.8-22.4-53.6-6.4-12.8-4-28 6.4-38.4l56-56c7.2-7.2 7.2-18.4 0-24.8L796 128.8c-6.4-6.4-18.4-6.4-24.8 0l-56 56c-9.6 9.6-26.4 12.8-38.4 6.4-17.6-8.8-35.2-16-53.6-22.4-13.6-4.8-23.2-17.6-23.2-32V57.6C600 48 592 40 582.4 40H441.6C432 40 424 48 424 57.6V136c0 14.4-9.6 27.2-23.2 32-18.4 5.6-36.8 13.6-53.6 22.4-12.8 6.4-28.8 4-38.4-6.4l-56-56c-6.4-6.4-18.4-6.4-24.8 0L128.8 228c-7.2 7.2-7.2 18.4 0 24.8l56 56c10.4 10.4 12.8 25.6 6.4 38.4-8.8 17.6-16 35.2-22.4 53.6-4.8 13.6-17.6 23.2-32 23.2H57.6C48 424 40 432 40 441.6v140.8C40 592 48 600 57.6 600H136c14.4 0 27.2 9.6 32 23.2 5.6 18.4 13.6 36.8 22.4 53.6 6.4 12.8 4 28-6.4 38.4l-56 56c-3.2 3.2-4.8 8-4.8 12.8 0 4.8 1.6 8.8 4.8 12.8L227.2 896c6.4 6.4 18.4 6.4 24.8 0l56-56c7.2-6.4 16-10.4 24.8-10.4zM512 745.6c-128.8 0-233.6-104.8-233.6-233.6S383.2 278.4 512 278.4 745.6 383.2 745.6 512 640.8 745.6 512 745.6z m0-451.2C392 294.4 294.4 392 294.4 512S392 729.6 512 729.6 729.6 632 729.6 512 632 294.4 512 294.4z" fill="#6A576D" /></svg>